<svg width="60" height="60" viewBox="0 0 60 60" fill="none" xmlns="http://www.w3.org/2000/svg">
<rect width="60" height="60" rx="12" fill="#0f0f23"/>
<rect x="1" y="1" width="58" height="58" rx="11" stroke="#8c5cff" stroke-width="2"/>
<!-- Wave pattern representing surf/crawling -->
<path d="M12 25c4-3 8-3 12 0s8 3 12 0 8-3 12 0 8 3 8 0" stroke="#d6f55c" stroke-width="2" fill="none"/>
<path d="M12 35c4-3 8-3 12 0s8 3 12 0 8-3 12 0" stroke="#55a0ff" stroke-width="2" fill="none"/>
<!-- Data extraction arrows -->
<path d="M45 42l-4-3v2h-6v2h6v2l4-3z" fill="#d6f55c"/>
<path d="M45 18l-4-3v2h-6v2h6v2l4-3z" fill="#55a0ff"/>
<!-- Dots representing data points -->
<circle cx="18" cy="45" r="1.5" fill="#d6f55c"/>
<circle cx="25" cy="45" r="1.5" fill="#55a0ff"/>
<circle cx="32" cy="45" r="1.5" fill="#d6f55c"/>
</svg>